<?xml version="1.0" encoding="utf-8"?>
<!-- Generator: Adobe Illustrator 18.1.0, SVG Export Plug-In . SVG Version: 6.00 Build 0)  -->
<svg version="1.1" id="clock" xmlns="http://www.w3.org/2000/svg" xmlns:xlink="http://www.w3.org/1999/xlink" x="0px" y="0px"
	 viewBox="0 0 631.4 631.4" enable-background="new 0 0 631.4 631.4" xml:space="preserve">
<g>
	<path d="M315.7,26.3c160.5,0,289.4,128.9,289.4,289.4S476.2,605.1,315.7,605.1S26.3,476.2,26.3,315.7S155.2,26.3,315.7,26.3
		 M315.7,0C142.1,0,0,142.1,0,315.7s142.1,315.7,315.7,315.7s315.7-142.1,315.7-315.7S489.3,0,315.7,0L315.7,0z"/>
	<g>
		<polygon points="315.7,386.7 173.6,247.3 194.7,226.3 315.7,349.9 489.3,173.6 510.4,194.7 		"/>
	</g>
	<g>
		<circle cx="315.7" cy="78.9" r="21"/>
		<circle cx="315.7" cy="552.5" r="21"/>
		<circle cx="78.9" cy="315.7" r="21"/>
		<circle cx="552.5" cy="315.7" r="21"/>
	</g>
</g>
</svg>
