<?xml version="1.0" encoding="utf-8"?>
<!-- Generator: Adobe Illustrator 18.1.1, SVG Export Plug-In . SVG Version: 6.00 Build 0)  -->
<svg version="1.1" id="controls.selected" xmlns="http://www.w3.org/2000/svg" xmlns:xlink="http://www.w3.org/1999/xlink" x="0px"
	 y="0px" viewBox="0 0 18 18" enable-background="new 0 0 18 18" xml:space="preserve">
<g>
	<path fill="#666666" d="M9,1C4.6,1,1,4.6,1,9s3.6,8,8,8c4.4,0,8-3.6,8-8S13.4,1,9,1z M9,16.1c-3.9,0-7.1-3.3-7.1-7.1S5.1,1.9,9,1.9
		s7.1,3.3,7.1,7.1S12.9,16.1,9,16.1z"/>
	<path fill="#666666" d="M9,4.6C6.8,4.6,4.6,6.8,4.6,9c0,2.2,2.2,4.4,4.4,4.4c2.2,0,4.4-2.2,4.4-4.4C13.4,6.8,11.2,4.6,9,4.6z"/>
</g>
</svg>
