<?xml version="1.0" encoding="utf-8"?>
<!-- Generator: Adobe Illustrator 18.1.1, SVG Export Plug-In . SVG Version: 6.00 Build 0)  -->
<svg version="1.1" id="Direct_x5F_Select" xmlns="http://www.w3.org/2000/svg" xmlns:xlink="http://www.w3.org/1999/xlink" x="0px"
	 y="0px" viewBox="0 0 18 18" enable-background="new 0 0 18 18" xml:space="preserve">
<g>
	<path fill="#666666" d="M9.2,17c-0.7,0-1.4-0.5-1.7-1.2l-0.8-2.3L4,16.1V1l9.8,11.8l-3.7-0.4l0.8,2.3C11,14.8,11,15,11,15.2
		c0,0.8-0.5,1.4-1.2,1.7C9.6,17,9.4,17,9.2,17L9.2,17z M8.6,11.1l2.8,0.3L5,4v10l0.4-0.6L6,12l2.5,3.5C8.6,15.8,8.9,16,9.2,16
		c0.1,0,0.2,0,0.3,0c0.3-0.1,0.5-0.4,0.5-0.7c0-0.1,0-0.2,0-0.3L8.6,11.1z"/>
</g>
</svg>
