<?xml version="1.0" encoding="utf-8"?>
<!-- Generator: Adobe Illustrator 18.1.1, SVG Export Plug-In . SVG Version: 6.00 Build 0)  -->
<svg version="1.1" id="controls.search" xmlns="http://www.w3.org/2000/svg" xmlns:xlink="http://www.w3.org/1999/xlink" x="0px"
	 y="0px" viewBox="0 0 18 18" enable-background="new 0 0 18 18" xml:space="preserve">
<path fill="#666666" d="M10.2,1C6.6,1,3.7,3.9,3.7,7.5c0,1.4,0.5,2.7,1.2,3.8l-3.6,3.6c-0.5,0.5-0.5,1.3,0,1.8
	c0.5,0.5,1.3,0.5,1.8,0L6.8,13c1,0.6,2.2,1,3.4,1c3.6,0,6.5-2.9,6.5-6.5C16.7,3.9,13.8,1,10.2,1z M10.2,12c-2.5,0-4.5-2-4.5-4.5
	S7.7,3,10.2,3c2.5,0,4.5,2,4.5,4.5S12.7,12,10.2,12z"/>
</svg>
