<?xml version="1.0" encoding="utf-8"?>
<!-- Generator: Adobe Illustrator 18.1.1, SVG Export Plug-In . SVG Version: 6.00 Build 0)  -->
<svg version="1.1" id="system.time_x5F_selector" xmlns="http://www.w3.org/2000/svg" xmlns:xlink="http://www.w3.org/1999/xlink"
	 x="0px" y="0px" viewBox="0 0 18 18" enable-background="new 0 0 18 18" xml:space="preserve">
<g>
	<path fill="#666666" d="M16,8c0-3.9-3.1-7-7-7S2,4.1,2,8s3.1,7,7,7S16,11.9,16,8z M9,13c-2.8,0-5-2.2-5-5s2.2-5,5-5s5,2.2,5,5
		S11.8,13,9,13z"/>
	<path fill="#666666" d="M10,7.1V5c0-0.6-0.4-1-1-1S8,4.4,8,5v2.9l2,2l0.8,0.8c0.2,0.2,0.5,0.3,0.7,0.3s0.5-0.1,0.7-0.3
		c0.4-0.4,0.4-1,0-1.4L10,7.1z"/>
	<polygon fill="#666666" points="14,17 16,15 12,15 	"/>
</g>
</svg>
