<?xml version="1.0" encoding="utf-8"?>
<!-- Generator: Adobe Illustrator 18.1.1, SVG Export Plug-In . SVG Version: 6.00 Build 0)  -->
<svg version="1.1" id="List" xmlns="http://www.w3.org/2000/svg" xmlns:xlink="http://www.w3.org/1999/xlink" x="0px" y="0px"
	 viewBox="0 0 18 18" enable-background="new 0 0 18 18" xml:space="preserve">
<g>
	<path fill="#666666" d="M5,4c0,0.5-0.5,1-1,1H2C1.5,5,1,4.5,1,4V2c0-0.5,0.5-1,1-1h2c0.5,0,1,0.5,1,1V4z"/>
	<path fill="#666666" d="M5,10c0,0.5-0.5,1-1,1H2c-0.5,0-1-0.5-1-1V8c0-0.5,0.5-1,1-1h2c0.5,0,1,0.5,1,1V10z"/>
	<path fill="#666666" d="M5,16c0,0.5-0.5,1-1,1H2c-0.5,0-1-0.5-1-1v-2c0-0.5,0.5-1,1-1h2c0.5,0,1,0.5,1,1V16z"/>
	<path fill="#666666" d="M16,1H8C7.5,1,7,1.4,7,2v2c0,0.5,0.4,1,1,1h8c0.5,0,1-0.4,1-1V2C17,1.4,16.6,1,16,1z"/>
	<path fill="#666666" d="M16,7H8C7.5,7,7,7.4,7,8v2c0,0.5,0.4,1,1,1h8c0.5,0,1-0.4,1-1V8C17,7.4,16.6,7,16,7z"/>
	<path fill="#666666" d="M16,13H8c-0.5,0-1,0.4-1,1v2c0,0.5,0.4,1,1,1h8c0.5,0,1-0.4,1-1v-2C17,13.4,16.6,13,16,13z"/>
</g>
</svg>
