<?xml version="1.0" encoding="utf-8"?>
<!-- Generator: Adobe Illustrator 18.1.0, SVG Export Plug-In . SVG Version: 6.00 Build 0)  -->
<svg version="1.1" id="wallet" xmlns="http://www.w3.org/2000/svg" xmlns:xlink="http://www.w3.org/1999/xlink" x="0px" y="0px"
	 viewBox="0 0 657.7 657.7" enable-background="new 0 0 657.7 657.7" xml:space="preserve">
<g>
	<path d="M657.7,342h-26.3V184.2H263.1c0-44.7-34.2-78.9-78.9-78.9s-78.9,34.2-78.9,78.9H0v473.6h631.4V499.9h26.3V342z
		 M184.2,131.5c28.9,0,52.6,23.7,52.6,52.6H131.5C131.5,155.2,155.2,131.5,184.2,131.5z M605.1,631.4H26.3V210.5h578.8V342H394.6
		v157.9h210.5V631.4z M631.4,473.6H420.9V368.3h210.5V473.6z"/>
	<circle cx="473.6" cy="420.9" r="21"/>
	<path d="M394.6,157.9c44.7,0,78.9-34.2,78.9-78.9S439.4,0,394.6,0s-78.9,34.2-78.9,78.9S349.9,157.9,394.6,157.9z M394.6,26.3
		c28.9,0,52.6,23.7,52.6,52.6s-23.7,52.6-52.6,52.6c-28.9,0-52.6-23.7-52.6-52.6S365.7,26.3,394.6,26.3z"/>
</g>
</svg>
