<?xml version="1.0" encoding="utf-8"?>
<!-- Generator: Adobe Illustrator 18.1.0, SVG Export Plug-In . SVG Version: 6.00 Build 0)  -->
<svg version="1.1" id="calendar" xmlns="http://www.w3.org/2000/svg" xmlns:xlink="http://www.w3.org/1999/xlink" x="0px" y="0px"
	 viewBox="0 0 631.4 657.7" enable-background="new 0 0 631.4 657.7" xml:space="preserve">
<g>
	<path d="M526.2,52.6V0h-26.3v52.6H394.6V0h-26.3v52.6H263.1V0h-26.3v52.6H131.5V0h-26.3v52.6H0v605.1h631.4V52.6H526.2z
		 M605.1,631.4H26.3V78.9h78.9v52.6h26.3V78.9h105.2v52.6h26.3V78.9h105.2v52.6h26.3V78.9h105.2v52.6h26.3V78.9h78.9V631.4z"/>
	<polygon points="236.8,228.9 165.7,265.7 176.3,286.8 210.5,271 210.5,499.9 157.9,499.9 157.9,526.2 289.4,526.2 289.4,499.9 
		236.8,499.9 	"/>
	<polygon points="420.9,228.9 349.9,265.7 360.4,286.8 394.6,271 394.6,499.9 342,499.9 342,526.2 473.6,526.2 473.6,499.9 
		420.9,499.9 	"/>
</g>
</svg>
