<?xml version="1.0" encoding="utf-8"?>
<!-- Generator: Adobe Illustrator 18.1.0, SVG Export Plug-In . SVG Version: 6.00 Build 0)  -->
<svg version="1.1" id="camcorder" xmlns="http://www.w3.org/2000/svg" xmlns:xlink="http://www.w3.org/1999/xlink" x="0px" y="0px"
	 viewBox="0 0 657.7 605.1" enable-background="new 0 0 657.7 605.1" xml:space="preserve">
<g id="Warstwa_1">
	<path d="M657.7,368.3h-78.9v-78.9h-44.7c42.1-28.9,71-76.3,71-131.5C605.1,71,534.1,0,447.3,0c-65.8,0-121,39.5-144.7,94.7
		C278.9,39.5,223.6,0,157.9,0C71,0,0,71,0,157.9c0,55.2,28.9,102.6,71,131.5H26.3v315.7h552.5v-78.9h78.9V368.3z M447.3,26.3
		c73.7,0,131.5,57.9,131.5,131.5s-57.9,131.5-131.5,131.5s-131.5-57.9-131.5-131.5S373.6,26.3,447.3,26.3z M360.4,289.4H244.7
		c26.3-15.8,44.7-39.5,57.9-68.4C315.7,249.9,334.1,273.6,360.4,289.4z M26.3,157.9c0-73.7,57.9-131.5,131.5-131.5
		s131.5,57.9,131.5,131.5s-57.9,131.5-131.5,131.5S26.3,231.5,26.3,157.9z M552.5,578.8H52.6V315.7h499.9v52.6v157.9V578.8z
		 M631.4,499.9h-52.6V394.6h52.6V499.9z"/>
</g>
<g id="Warstwa_5">
</g>
</svg>
