<?xml version="1.0" encoding="utf-8"?>
<!-- Generator: Adobe Illustrator 18.1.0, SVG Export Plug-In . SVG Version: 6.00 Build 0)  -->
<svg version="1.1" id="cog" xmlns="http://www.w3.org/2000/svg" xmlns:xlink="http://www.w3.org/1999/xlink" x="0px" y="0px"
	 viewBox="0 0 684 686.7" enable-background="new 0 0 684 686.7" xml:space="preserve">
<g>
	<path d="M673.5,420.9c5.3-26.3,10.5-52.6,10.5-78.9c0-26.3-2.6-52.6-10.5-78.9h-55.2c-5.3-21-15.8-42.1-26.3-63.1l39.5-39.5
		C605.1,118.4,565.6,78.9,520.9,50l-39.5,39.5C463,78.9,442,71,418.3,63.1V10.5C394.6,2.6,368.3,0,342,0c-26.3,0-52.6,2.6-78.9,10.5
		v55.2C242,71,221,81.6,199.9,92.1L163.1,50C118.4,78.9,78.9,118.4,50,163.1l39.5,39.5C78.9,221,71,242,63.1,265.7H10.5
		C2.6,289.4,0,315.7,0,342c0,26.3,2.6,52.6,10.5,78.9h55.2c5.3,21,15.8,42.1,26.3,63.1l-39.5,39.5c26.3,42.1,65.8,81.6,110.5,110.5
		l39.5-39.5c18.4,10.5,39.5,18.4,63.1,26.3v55.2c26.3,5.3,52.6,10.5,78.9,10.5c26.3,0,52.6-2.6,78.9-10.5v-55.2
		c21-5.3,42.1-15.8,63.1-26.3l39.5,39.5c44.7-28.9,84.2-65.8,110.5-110.5l-39.5-39.5c10.5-18.4,18.4-39.5,26.3-63.1L673.5,420.9
		L673.5,420.9z M594.6,413.1c-5.3,21-13.2,39.5-23.7,55.2l-10.5,18.4l13.2,13.2l23.7,23.7c-18.4,28.9-44.7,55.2-73.7,76.3
		l-23.7-23.7L486.7,563l-18.4,10.5c-18.4,10.5-36.8,18.4-55.2,23.7l-18.4,2.6v21v31.6c-18.4,2.6-34.2,5.3-52.6,5.3
		c-18.4,0-34.2-2.6-52.6-5.3v-31.6v-21l-18.4-5.3c-21-5.3-39.5-13.2-55.2-23.7l-18.4-10.5l-13.2,13.2l-23.7,23.7
		c-28.9-18.4-55.2-44.7-76.3-73.7l23.7-23.7l13.2-13.2l-10.5-18.4c-10.5-18.4-18.4-36.8-23.7-55.2l-2.6-18.4h-21H31.6
		c-2.6-18.4-5.3-34.2-5.3-52.6c0-18.4,2.6-34.2,5.3-52.6h31.6h21l5.3-18.4c5.3-21,13.2-39.5,23.7-55.2l10.5-18.4l-15.8-15.8
		l-23.7-21c21-28.9,47.4-55.2,76.3-76.3l23.7,23.7l13.2,13.2l18.4-10.5c18.4-10.5,36.8-18.4,55.2-23.7l18.4-2.6v-21V31.6
		c18.4-2.6,34.2-5.3,52.6-5.3s34.2,2.6,52.6,5.3v31.6v21l18.4,5.3c21,5.3,39.5,13.2,55.2,23.7l18.4,10.5l13.2-13.2l23.7-23.7
		c28.9,18.4,55.2,44.7,76.3,73.7l-23.7,23.7L563,197.3l10.5,18.4c10.5,18.4,18.4,36.8,23.7,55.2l5.3,18.4h21h31.6
		c2.6,18.4,5.3,34.2,5.3,52.6s-2.6,34.2-5.3,52.6h-31.6h-21L594.6,413.1z"/>
	<path d="M342,236.8c-57.9,0-105.2,47.4-105.2,105.2S284.1,447.3,342,447.3S447.3,399.9,447.3,342S399.9,236.8,342,236.8z
		 M342,420.9c-44.7,0-78.9-34.2-78.9-78.9s34.2-78.9,78.9-78.9s78.9,34.2,78.9,78.9S386.7,420.9,342,420.9z"/>
</g>
</svg>
