<?xml version="1.0" encoding="utf-8"?>
<!-- Generator: Adobe Illustrator 18.1.0, SVG Export Plug-In . SVG Version: 6.00 Build 0)  -->
<svg version="1.1" id="credit-card" xmlns="http://www.w3.org/2000/svg" xmlns:xlink="http://www.w3.org/1999/xlink" x="0px"
	 y="0px" viewBox="0 0 684 473.6" enable-background="new 0 0 684 473.6" xml:space="preserve">
<g>
	<path d="M631.4,0H52.6C23.7,0,0,23.7,0,52.6v368.3c0,28.9,23.7,52.6,52.6,52.6h578.8c28.9,0,52.6-23.7,52.6-52.6V52.6
		C684,23.7,660.4,0,631.4,0z M52.6,26.3h578.8c15.8,0,26.3,10.5,26.3,26.3v26.3H26.3V52.6C26.3,36.8,36.8,26.3,52.6,26.3z
		 M657.7,105.2v105.2H26.3V105.2H657.7z M631.4,447.3H52.6c-15.8,0-26.3-10.5-26.3-26.3V236.8h631.4v184.2
		C657.7,436.7,647.2,447.3,631.4,447.3z"/>
	<rect x="289.4" y="289.4" width="315.7" height="26.3"/>
	<rect x="394.6" y="342" width="210.5" height="26.3"/>
</g>
</svg>
