<?xml version="1.0" encoding="utf-8"?>
<!-- Generator: Adobe Illustrator 18.1.0, SVG Export Plug-In . SVG Version: 6.00 Build 0)  -->
<svg version="1.1" id="gift" xmlns="http://www.w3.org/2000/svg" xmlns:xlink="http://www.w3.org/1999/xlink" x="0px" y="0px"
	 viewBox="0 0 684 605.1" enable-background="new 0 0 684 605.1" xml:space="preserve">
<path d="M684,131.5H465.7c13.2-13.2,21-31.6,21-52.6c0-44.7-34.2-78.9-78.9-78.9c-26.3,0-52.6,13.2-65.8,34.2
	C328.9,13.2,302.6,0,276.2,0c-44.7,0-78.9,34.2-78.9,78.9c0,21,7.9,39.5,21,52.6H0v105.2h26.3v368.3h631.4V236.8H684V131.5z
	 M407.8,26.3c28.9,0,52.6,23.7,52.6,52.6s-23.7,52.6-52.6,52.6h-52.6V78.9C355.2,50,378.9,26.3,407.8,26.3z M223.6,78.9
	c0-28.9,23.7-52.6,52.6-52.6c28.9,0,52.6,23.7,52.6,52.6v52.6h-52.6C247.3,131.5,223.6,107.9,223.6,78.9z M26.3,157.9h249.9h52.6
	v52.6H26.3V157.9z M52.6,236.8h276.2v342H52.6V236.8z M631.4,578.8H355.2v-342h276.2V578.8z M657.7,210.5H355.2v-52.6h52.6h249.9
	V210.5z"/>
</svg>
