<?xml version="1.0" encoding="utf-8"?>
<!-- Generator: Adobe Illustrator 18.1.0, SVG Export Plug-In . SVG Version: 6.00 Build 0)  -->
<svg version="1.1" id="Achievement" xmlns="http://www.w3.org/2000/svg" xmlns:xlink="http://www.w3.org/1999/xlink" x="0px"
	 y="0px" viewBox="0 0 499.9 684" enable-background="new 0 0 499.9 684" xml:space="preserve">
<path d="M407.8,342v-55.2c52.6-5.3,92.1-50,92.1-102.6s-39.5-97.3-92.1-102.6V0H92.1v81.6C39.5,86.8,0,131.5,0,184.2
	s39.5,97.3,92.1,102.6V342c0,81.6,63.1,150,144.7,157.9v52.6H118.4v52.6H65.8V684h368.3v-78.9h-52.6v-52.6H263.1v-52.6
	C344.6,492,407.8,423.6,407.8,342z M407.8,631.4v26.3H92.1v-26.3h26.3h263.1H407.8z M355.2,605.1H144.7v-26.3h210.5V605.1z
	 M473.6,184.2c0,39.5-28.9,71-65.8,76.3V107.9C444.6,113.1,473.6,144.7,473.6,184.2z M26.3,184.2c0-39.5,28.9-71,65.8-76.3v155.2
	C55.2,255.2,26.3,223.6,26.3,184.2z M118.4,342V26.3h263.1V342c0,73.7-57.9,131.5-131.5,131.5S118.4,415.7,118.4,342z"/>
</svg>
