<?xml version="1.0" encoding="utf-8"?>
<!-- Generator: Adobe Illustrator 18.1.0, SVG Export Plug-In . SVG Version: 6.00 Build 0)  -->
<svg version="1.1" id="bell" xmlns="http://www.w3.org/2000/svg" xmlns:xlink="http://www.w3.org/1999/xlink" x="0px" y="0px"
	 viewBox="0 0 631.4 657.7" enable-background="new 0 0 631.4 657.7" xml:space="preserve">
<path d="M552.5,389.4V236.8C552.5,105.2,447.3,0,315.7,0S78.9,105.2,78.9,236.8v152.6L0,578.8h78.9h157.9
	c0,44.7,34.2,78.9,78.9,78.9c44.7,0,78.9-34.2,78.9-78.9h157.9h78.9L552.5,389.4z M315.7,26.3c115.8,0,210.5,94.7,210.5,210.5v131.5
	H105.2V236.8C105.2,121,199.9,26.3,315.7,26.3z M315.7,631.4c-28.9,0-52.6-23.7-52.6-52.6h105.2
	C368.3,607.7,344.6,631.4,315.7,631.4z M78.9,552.5H39.5l63.1-152.6l2.6-5.3h420.9l2.6,5.3L592,552.5h-39.5H78.9z"/>
</svg>
