<?xml version="1.0" encoding="utf-8"?>
<!-- Generator: Adobe Illustrator 18.1.0, SVG Export Plug-In . SVG Version: 6.00 Build 0)  -->
<svg version="1.1" id="bookmark" xmlns="http://www.w3.org/2000/svg" xmlns:xlink="http://www.w3.org/1999/xlink" x="0px" y="0px"
	 viewBox="0 0 631.4 684" enable-background="new 0 0 631.4 684" xml:space="preserve">
<g>
	<path d="M131.5,157.9H0v26.3h131.5v52.6H0v26.3h131.5v52.6H0V342h131.5v52.6H0v26.3h131.5V684l184.2-184.2L499.9,684V420.9h131.5
		v-26.3H499.9V342h131.5v-26.3H499.9v-52.6h131.5v-26.3H499.9v-52.6h131.5v-26.3H499.9H131.5z M473.6,620.9L334.1,481.5L315.7,463
		l-18.4,18.4L157.9,620.9V420.9v-26.3V342v-26.3V184.2h315.7V620.9z"/>
	<rect y="0" width="631.4" height="26.3"/>
	<rect y="78.9" width="631.4" height="26.3"/>
</g>
</svg>
