<?xml version="1.0" encoding="utf-8"?>
<!-- Generator: Adobe Illustrator 18.1.0, SVG Export Plug-In . SVG Version: 6.00 Build 0)  -->
<svg version="1.1" id="bulb" xmlns="http://www.w3.org/2000/svg" xmlns:xlink="http://www.w3.org/1999/xlink" x="0px" y="0px"
	 viewBox="0 0 649.8 649.8" enable-background="new 0 0 649.8 649.8" xml:space="preserve">
<g>
	<path d="M386.7,0C242,0,123.7,118.4,123.7,263.1v150L0,539.3l110.5,110.5l126.3-123.7h150c144.7,0,263.1-118.4,263.1-263.1
		S531.4,0,386.7,0z M115.8,460.4l21-21l73.7,73.7l-21,21L115.8,460.4z M171,552.5l-21,21l-73.7-73.7l21-21L171,552.5z M36.8,539.3
		l21-21l73.7,73.7l-21,21L36.8,539.3z M386.7,499.9H234.2L150,415.7V263.1c0-131.5,105.2-236.8,236.8-236.8s236.8,105.2,236.8,236.8
		S518.3,499.9,386.7,499.9z"/>
	<path d="M202.6,263.1h26.3c0-86.8,71-157.9,157.9-157.9V78.9C284.1,78.9,202.6,160.5,202.6,263.1z"/>
</g>
</svg>
