<?xml version="1.0" encoding="utf-8"?>
<!-- Generator: Adobe Illustrator 18.1.0, SVG Export Plug-In . SVG Version: 6.00 Build 0)  -->
<svg version="1.1" id="chart" xmlns="http://www.w3.org/2000/svg" xmlns:xlink="http://www.w3.org/1999/xlink" x="0px" y="0px"
	 viewBox="0 0 684 631.4" enable-background="new 0 0 684 631.4" xml:space="preserve">
<polygon points="605.1,605.1 605.1,78.9 578.8,78.9 578.8,605.1 473.6,605.1 473.6,342 447.3,342 447.3,605.1 342,605.1 342,210.5 
	315.7,210.5 315.7,605.1 210.5,605.1 210.5,473.6 184.2,473.6 184.2,605.1 78.9,605.1 78.9,0 52.6,0 52.6,105.2 0,105.2 0,131.5 
	52.6,131.5 52.6,236.8 0,236.8 0,263.1 52.6,263.1 52.6,368.3 0,368.3 0,394.6 52.6,394.6 52.6,499.9 0,499.9 0,526.2 52.6,526.2 
	52.6,631.4 684,631.4 684,605.1 "/>
</svg>
