<?xml version="1.0" encoding="utf-8"?>
<!-- Generator: Adobe Illustrator 18.1.0, SVG Export Plug-In . SVG Version: 6.00 Build 0)  -->
<!DOCTYPE svg PUBLIC "-//W3C//DTD SVG 1.1//EN" "http://www.w3.org/Graphics/SVG/1.1/DTD/svg11.dtd">
<svg version="1.1" id="compass" xmlns="http://www.w3.org/2000/svg" xmlns:xlink="http://www.w3.org/1999/xlink" x="0px" y="0px"
	 viewBox="0 0 595.3 595.3" enable-background="new 0 0 595.3 595.3" xml:space="preserve">
<g>
	<path d="M297.6,0C134,0,0,134,0,297.6s134,297.6,297.6,297.6s297.6-134,297.6-297.6S461.3,0,297.6,0z M297.6,570.5
		C146.3,570.5,24.8,449,24.8,297.6S146.3,24.8,297.6,24.8s272.8,121.5,272.8,272.8S449,570.5,297.6,570.5z"/>
	<path d="M124,471.3l248-99.2l99.2-248l-248,99.2L124,471.3z M426.6,168.7l-74.4,183.6l-183.6,74.4l74.4-183.6L426.6,168.7z"/>
	<circle cx="297.6" cy="297.6" r="19.8"/>
</g>
</svg>
