<?xml version="1.0" encoding="utf-8"?>
<!-- Generator: Adobe Illustrator 18.1.0, SVG Export Plug-In . SVG Version: 6.00 Build 0)  -->
<!DOCTYPE svg PUBLIC "-//W3C//DTD SVG 1.1//EN" "http://www.w3.org/Graphics/SVG/1.1/DTD/svg11.dtd">
<svg version="1.1" id="dashboard" xmlns="http://www.w3.org/2000/svg" xmlns:xlink="http://www.w3.org/1999/xlink" x="0px" y="0px"
	 viewBox="0 0 595.3 595.4" enable-background="new 0 0 595.3 595.4" xml:space="preserve">
<g>
	<path d="M297.6,0C133.9,0,0,134,0,297.6s133.9,297.7,297.6,297.7s297.6-134,297.6-297.6S461.3,0,297.6,0z M297.6,24.8
		c151.3,0,272.8,121.5,272.8,272.8c0,69.5-27.2,131.4-69.5,181.1c-54.6-52-126.5-81.8-203.4-81.8s-148.9,29.8-203.5,81.8
		C52,429.2,24.7,367.1,24.7,297.6C24.8,146.4,146.3,24.8,297.6,24.8z M111.5,496.1c49.6-47.1,116.6-74.4,186-74.4
		s136.4,27.2,186,74.4c-49.6,47.1-114.1,74.4-186,74.4S158.7,543.2,111.5,496.1z"/>
	<rect x="260.7" y="199.3" transform="matrix(-0.7071 0.7071 -0.7071 -0.7071 804.4196 90.1929)" width="245.6" height="24.8"/>
	<circle cx="297.6" cy="74.5" r="19.8"/>
	<circle cx="74.4" cy="297.6" r="19.8"/>
	<circle cx="520.8" cy="297.6" r="19.8"/>
	<path d="M138.9,158.8c5,0,9.9-2.5,12.4-5c7.4-7.4,7.4-19.8,0-27.2c-7.4-7.4-19.8-7.4-27.2,0c-7.4,7.4-7.4,19.8,0,27.2
		C129,156.3,133.9,158.8,138.9,158.8z"/>
	<rect x="248" y="496.1" width="99.2" height="24.8"/>
</g>
</svg>
