<?xml version="1.0" encoding="utf-8"?>
<!-- Generator: Adobe Illustrator 18.1.0, SVG Export Plug-In . SVG Version: 6.00 Build 0)  -->
<svg version="1.1" id="heart" xmlns="http://www.w3.org/2000/svg" xmlns:xlink="http://www.w3.org/1999/xlink" x="0px" y="0px"
	 viewBox="0 0 685.4 584.1" enable-background="new 0 0 685.4 584.1" xml:space="preserve">
<path d="M632.1,52.6C595.2,15.8,550.5,0,503.2,0s-94.7,18.4-128.9,52.6c-10.5,10.5-21,23.7-28.9,39.5c-7.9-13.2-18.4-26.3-28.9-39.5
	C279.5,15.8,234.8,0,187.5,0S90.1,15.8,53.3,52.6c-71,71-71,186.8,0,260.5l289.4,271l289.4-273.6
	C703.1,239.4,703.1,123.7,632.1,52.6z M613.7,292l-271,257.8L71.7,292C42.8,263.1,27,223.6,27,181.5S42.8,100,71.7,71
	c31.6-31.6,71-47.4,113.1-47.4s81.6,15.8,110.5,44.7c10.5,10.5,18.4,21,23.7,31.6l23.7,39.5l23.7-39.5c7.9-13.2,15.8-23.7,23.7-31.6
	c28.9-28.9,68.4-44.7,110.5-44.7S582.1,39.5,611,68.4s44.7,68.4,44.7,110.5S642.6,263.1,613.7,292z"/>
</svg>
