<?xml version="1.0" encoding="utf-8"?>
<!-- Generator: Adobe Illustrator 18.1.0, SVG Export Plug-In . SVG Version: 6.00 Build 0)  -->
<svg version="1.1" id="home" xmlns="http://www.w3.org/2000/svg" xmlns:xlink="http://www.w3.org/1999/xlink" x="0px" y="0px"
	 viewBox="0 0 705.1 676.1" enable-background="new 0 0 705.1 676.1" xml:space="preserve">
<g>
	<path d="M705.1,349.9L352.5,0L0,349.9l18.4,18.4l44.7-42.1v349.9h578.8V326.2l42.1,42.1L705.1,349.9z M405.2,649.8H299.9V439.4
		h105.2V649.8z M615.6,649.8H431.5V413.1H273.6v236.8H89.5V299.9L352.5,36.8l263.1,263.1V649.8z"/>
	<path d="M273.6,255.2c0,44.7,34.2,78.9,78.9,78.9s78.9-34.2,78.9-78.9s-34.2-78.9-78.9-78.9S273.6,210.5,273.6,255.2z M405.2,255.2
		c0,28.9-23.7,52.6-52.6,52.6s-52.6-23.7-52.6-52.6s23.7-52.6,52.6-52.6S405.2,226.3,405.2,255.2z"/>
</g>
</svg>
