<?xml version="1.0" encoding="utf-8"?>
<!-- Generator: Adobe Illustrator 18.1.0, SVG Export Plug-In . SVG Version: 6.00 Build 0)  -->
<svg version="1.1" id="joystick" xmlns="http://www.w3.org/2000/svg" xmlns:xlink="http://www.w3.org/1999/xlink" x="0px" y="0px"
	 viewBox="0 0 659 663" enable-background="new 0 0 659 663" xml:space="preserve">
<g>
	<circle cx="434.8" cy="134.2" r="21"/>
	<circle cx="526.8" cy="226.3" r="21"/>
	<circle cx="526.8" cy="134.2" r="21"/>
	<circle cx="434.8" cy="226.3" r="21"/>
	<path d="M605.8,55.2C568.9,18.4,521.6,0,474.2,0s-94.7,18.4-131.5,55.2L208.5,189.4L90.1,71l-21,21l118.4,118.4L53.3,344.6
		c-71,71-71,192.1,0,263.1c36.8,36.8,84.2,55.2,131.5,55.2s94.7-18.4,131.5-55.2l39.5-39.5v-78.9l131.5-131.5h78.9l39.5-39.5
		C676.8,247.3,676.8,126.3,605.8,55.2z M587.3,299.9l-31.6,31.6h-68.4h-10.5l-7.9,7.9L337.4,470.9l-7.9,7.9v10.5v68.4L298,589.3
		c-28.9,28.9-71,47.4-113.1,47.4s-84.2-15.8-113.1-47.4c-60.5-60.5-60.5-165.7,0-226.3L361.1,73.7c28.9-28.9,71-47.4,113.1-47.4
		c42.1,0,84.2,15.8,113.1,47.4C647.9,134.2,647.9,239.4,587.3,299.9z"/>
	<polygon points="226.9,413.1 184.8,457.8 142.7,413.1 121.7,434.1 166.4,476.2 121.7,518.3 142.7,539.3 184.8,494.6 226.9,539.3 
		248,518.3 203.2,476.2 248,434.1 	"/>
</g>
</svg>
