<?xml version="1.0" encoding="utf-8"?>
<!-- Generator: Adobe Illustrator 18.1.0, SVG Export Plug-In . SVG Version: 6.00 Build 0)  -->
<svg version="1.1" id="life-belt" xmlns="http://www.w3.org/2000/svg" xmlns:xlink="http://www.w3.org/1999/xlink" x="0px" y="0px"
	 viewBox="0 0 631.4 631.4" enable-background="new 0 0 631.4 631.4" xml:space="preserve">
<path d="M315.7,0C142.1,0,0,142.1,0,315.7s142.1,315.7,315.7,315.7s315.7-142.1,315.7-315.7S489.3,0,315.7,0z M510.4,102.6
	l-73.7,73.7c-31.6-28.9-73.7-44.7-121-44.7s-89.5,15.8-121,44.7L121,102.6c52.6-47.4,118.4-76.3,194.7-76.3S457.8,55.2,510.4,102.6z
	 M315.7,473.6c-86.8,0-157.9-71-157.9-157.9s71-157.9,157.9-157.9s157.9,71,157.9,157.9S402.5,473.6,315.7,473.6z M26.3,315.7
	c0-76.3,28.9-142.1,76.3-194.7l73.7,73.7c-28.9,31.6-44.7,73.7-44.7,121s15.8,89.5,44.7,121l-73.7,73.7
	C55.2,457.8,26.3,392,26.3,315.7z M121,528.8l73.7-73.7c31.6,28.9,73.7,44.7,121,44.7s89.5-15.8,121-44.7l73.7,73.7
	c-52.6,47.4-121,76.3-194.7,76.3S173.6,576.2,121,528.8z M528.8,510.4l-73.7-73.7c28.9-31.6,44.7-73.7,44.7-121
	c0-47.4-15.8-89.5-44.7-121l73.7-73.7c47.4,52.6,76.3,121,76.3,194.7S576.2,457.8,528.8,510.4z"/>
</svg>
