<?xml version="1.0" encoding="utf-8"?>
<!-- Generator: Adobe Illustrator 18.1.0, SVG Export Plug-In . SVG Version: 6.00 Build 0)  -->
<!DOCTYPE svg PUBLIC "-//W3C//DTD SVG 1.1//EN" "http://www.w3.org/Graphics/SVG/1.1/DTD/svg11.dtd">
<svg version="1.1" id="like" xmlns="http://www.w3.org/2000/svg" xmlns:xlink="http://www.w3.org/1999/xlink" x="0px" y="0px"
	 viewBox="0 0 595.5 569.5" enable-background="new 0 0 595.5 569.5" xml:space="preserve">
<g>
	<path d="M595.3,207.3H388.2v25.8h-51.8L232.9,0H129.3v181.3H0v362.4h232.9h51.8l51.8-51.8h51.8v77.5h207.1v-25.8H414.2V492V233.3
		h181.3v-26H595.3z M25.8,518V207.3h103.5h25.8h51.8V518L25.8,518L25.8,518z M336.4,466.2h-10.3l-7.7,7.7l-44,44h-41.5V181.6h-77.5
		V26.2h62.1l95.8,217.4l7.7,15.5h15.5h51.8v207.1H336.4z"/>
	<circle cx="465.7" cy="492.2" r="20.6"/>
</g>
</svg>
