<?xml version="1.0" encoding="utf-8"?>
<!-- Generator: Adobe Illustrator 18.1.0, SVG Export Plug-In . SVG Version: 6.00 Build 0)  -->
<svg version="1.1" id="link" xmlns="http://www.w3.org/2000/svg" xmlns:xlink="http://www.w3.org/1999/xlink" x="0px" y="0px"
	 viewBox="0 0 684 684" enable-background="new 0 0 684 684" xml:space="preserve">
<path d="M447.3,368.3L684,131.5L552.5,0L315.7,236.8L371,292L292,371l-55.2-55.2L0,552.5L131.5,684l236.8-236.8L313.1,392l78.9-78.9
	L447.3,368.3z M331.5,447.3L131.5,647.2l-94.7-94.7l199.9-199.9l36.8,36.8L199.9,463l18.4,18.4l73.7-73.7L331.5,447.3z M352.5,236.8
	L552.5,36.8l94.7,94.7L447.3,331.5l-36.8-36.8l73.7-73.7l-18.4-18.4L392,276.2L352.5,236.8z"/>
</svg>
