<?xml version="1.0" encoding="utf-8"?>
<!-- Generator: Adobe Illustrator 18.1.0, SVG Export Plug-In . SVG Version: 6.00 Build 0)  -->
<svg version="1.1" id="magnifying-glass" xmlns="http://www.w3.org/2000/svg" xmlns:xlink="http://www.w3.org/1999/xlink" x="0px"
	 y="0px" viewBox="0 0 641.9 641.9" enable-background="new 0 0 641.9 641.9" xml:space="preserve">
<g>
	<path d="M405.2,0C273.6,0,168.4,105.2,168.4,236.8c0,60.5,23.7,115.8,60.5,157.9L0,623.5l18.4,18.4l228.9-228.9
		c42.1,36.8,97.3,60.5,157.9,60.5c131.5,0,236.8-105.2,236.8-236.8S536.7,0,405.2,0z M405.2,447.3c-115.8,0-210.5-94.7-210.5-210.5
		S289.4,26.3,405.2,26.3S615.6,121,615.6,236.8S520.9,447.3,405.2,447.3z"/>
	<path d="M247.3,236.8h26.3c0-73.7,57.9-131.5,131.5-131.5V78.9C318.3,78.9,247.3,150,247.3,236.8z"/>
</g>
</svg>
