<?xml version="1.0" encoding="utf-8"?>
<!-- Generator: Adobe Illustrator 18.1.0, SVG Export Plug-In . SVG Version: 6.00 Build 0)  -->
<!DOCTYPE svg PUBLIC "-//W3C//DTD SVG 1.1//EN" "http://www.w3.org/Graphics/SVG/1.1/DTD/svg11.dtd">
<svg version="1.1" id="megaphone" xmlns="http://www.w3.org/2000/svg" xmlns:xlink="http://www.w3.org/1999/xlink" x="0px" y="0px"
	 viewBox="0 0 595.3 620.2" enable-background="new 0 0 595.3 620.2" xml:space="preserve">
<path d="M520.8,223.3L520.8,223.3V0L0,223.3v148.9l74.4,32.2v215.8h148.9V468.9l297.6,126.5V372.1l0,0c42.1,0,74.4-32.2,74.4-74.4
	S563,223.3,520.8,223.3z M24.8,240.6L372,91.7V506L24.8,357.2V240.6z M198.4,595.3H99.2v-181l99.2,42.1V595.3z M496,558.1L396.8,516
	V79.5L496,37.3V558.1z M520.8,347.3L520.8,347.3V248l0,0c27.2,0,49.6,22.3,49.6,49.6S548.1,347.3,520.8,347.3z"/>
</svg>
