<?xml version="1.0" encoding="utf-8"?>
<!-- Generator: Adobe Illustrator 18.1.0, SVG Export Plug-In . SVG Version: 6.00 Build 0)  -->
<svg version="1.1" id="microphone" xmlns="http://www.w3.org/2000/svg" xmlns:xlink="http://www.w3.org/1999/xlink" x="0px" y="0px"
	 viewBox="0 0 655.1 652.5" enable-background="new 0 0 655.1 652.5" xml:space="preserve">
<path d="M523.6,0C449.9,0,392,57.9,392,131.5c0,7.9,0,15.8,2.6,23.7L50,499.9L92.1,542L0,634l18.4,18.4l92.1-92.1l44.7,44.7
	l344.6-344.6c7.9,2.6,15.8,2.6,23.7,2.6c73.7,0,131.5-57.9,131.5-131.5S597.2,0,523.6,0z M155.2,568.3l-68.4-68.4l318.3-318.3
	l68.4,68.4L155.2,568.3z M523.6,236.8c-10.5,0-21-2.6-31.6-5.3l-68.4-68.4c-2.6-10.5-5.3-21-5.3-31.6c0-57.9,47.4-105.2,105.2-105.2
	s105.2,47.4,105.2,105.2S581.4,236.8,523.6,236.8z"/>
</svg>
