<?xml version="1.0" encoding="utf-8"?>
<!-- Generator: Adobe Illustrator 18.1.0, SVG Export Plug-In . SVG Version: 6.00 Build 0)  -->
<svg version="1.1" id="pencil-ruler" xmlns="http://www.w3.org/2000/svg" xmlns:xlink="http://www.w3.org/1999/xlink" x="0px"
	 y="0px" viewBox="0 0 684 684" enable-background="new 0 0 684 684" xml:space="preserve">
<path d="M473.6,315.7l197.3-197.3L565.6,13.2L368.3,210.5L157.9,0L0,157.9l210.5,210.5L26.3,552.5v105.2h105.2l184.2-184.2
	L526.2,684L684,526.2L473.6,315.7z M634,118.4l-63.1,63.1l-68.4-68.4L565.6,50L634,118.4z M36.8,157.9l121-121l36.8,36.8L147.3,121
	l18.4,18.4l47.4-47.4l34.2,34.2l-47.4,47.4l18.4,18.4l47.4-47.4l34.2,34.2l-47.4,47.4l18.4,18.4l47.4-47.4l28.9,28.9l-121,121
	L36.8,157.9z M121,631.4H52.6V563l431.5-428.8l68.4,68.4L121,631.4z M334.1,455.1l121-121l28.9,28.9l-47.4,47.4l18.4,18.4l47.4-47.4
	l34.2,34.2L489.3,463l18.4,18.4l47.4-47.4l34.2,34.2L542,515.7l18.4,18.4l47.4-47.4l36.8,36.8L526.2,647.2L334.1,455.1z"/>
</svg>
