<?xml version="1.0" encoding="utf-8"?>
<!-- Generator: Adobe Illustrator 18.1.0, SVG Export Plug-In . SVG Version: 6.00 Build 0)  -->
<!DOCTYPE svg PUBLIC "-//W3C//DTD SVG 1.1//EN" "http://www.w3.org/Graphics/SVG/1.1/DTD/svg11.dtd">
<svg version="1.1" id="pin" xmlns="http://www.w3.org/2000/svg" xmlns:xlink="http://www.w3.org/1999/xlink" x="0px" y="0px"
	 viewBox="0 0 595.3 820.5" enable-background="new 0 0 595.3 820.5" xml:space="preserve">
<g>
	<path d="M508.1,87.2C451.8,31,377.2,0,297.6,0S143.4,31,87.2,87.2S0,218.1,0,297.6c0,80.7,31.8,156.2,89.3,212.6l208.1,208.5
		l205.2-205.2l3.5-3.5c57.5-56.4,89.2-131.8,89.2-212.3C595.3,218.1,564.3,143.4,508.1,87.2z M489.1,481.1L297.4,672.7L112.3,487.2
		l-0.1-0.1c-51.4-50.3-79.7-117.6-79.7-189.5c0-146.2,118.9-265.1,265.1-265.1s265.1,118.9,265.1,265.1
		C562.8,366.7,536.6,431.5,489.1,481.1z"/>
	<rect x="98.9" y="788" width="397.6" height="32.5"/>
</g>
</svg>
