<?xml version="1.0" encoding="utf-8"?>
<!-- Generator: Adobe Illustrator 18.1.0, SVG Export Plug-In . SVG Version: 6.00 Build 0)  -->
<svg version="1.1" id="shield" xmlns="http://www.w3.org/2000/svg" xmlns:xlink="http://www.w3.org/1999/xlink" x="0px" y="0px"
	 viewBox="0 0 526.2 684" enable-background="new 0 0 526.2 684" xml:space="preserve">
<g>
	<path d="M263.1,0c0,0-105.2,105.2-263.1,105.2c0,128.9,0,315.7,0,315.7C0,565.6,118.4,684,263.1,684s263.1-118.4,263.1-263.1
		c0,0,0-234.2,0-315.7C368.3,105.2,263.1,0,263.1,0z M499.9,420.9c0,131.5-105.2,236.8-236.8,236.8S26.3,552.5,26.3,420.9V131.5
		c115.8-7.9,199.9-65.8,236.8-94.7c36.8,28.9,121,86.8,236.8,94.7V420.9z"/>
	<rect x="249.9" y="92.1" width="26.3" height="513"/>
</g>
</svg>
