<?xml version="1.0" encoding="utf-8"?>
<!-- Generator: Adobe Illustrator 18.1.0, SVG Export Plug-In . SVG Version: 6.00 Build 0)  -->
<svg version="1.1" id="sight" xmlns="http://www.w3.org/2000/svg" xmlns:xlink="http://www.w3.org/1999/xlink" x="0px" y="0px"
	 viewBox="0 0 631.4 631.4" enable-background="new 0 0 631.4 631.4" xml:space="preserve">
<path d="M315.7,0C142.1,0,0,142.1,0,315.7s142.1,315.7,315.7,315.7s315.7-142.1,315.7-315.7S489.3,0,315.7,0z M605.1,302.6H499.9
	c-7.9-92.1-78.9-163.1-171-171V26.3C478.8,34.2,597.2,152.6,605.1,302.6z M473.6,328.9c-5.3,76.3-68.4,136.8-144.7,144.7v-52.6
	h-26.3v52.6c-76.3-5.3-136.8-68.4-144.7-144.7h52.6v-26.3h-52.6c5.3-76.3,68.4-136.8,144.7-144.7v52.6h26.3v-52.6
	c76.3,5.3,136.8,68.4,144.7,144.7h-52.6v26.3H473.6z M302.6,26.3v105.2c-92.1,7.9-163.1,78.9-171,171H26.3
	C34.2,152.6,152.6,34.2,302.6,26.3z M26.3,328.9h105.2c5.3,92.1,78.9,163.1,171,171v105.2C152.6,597.2,34.2,478.8,26.3,328.9z
	 M328.9,605.1V499.9c92.1-5.3,163.1-78.9,171-171h105.2C597.2,478.8,478.8,597.2,328.9,605.1z"/>
</svg>
