<?xml version="1.0" encoding="utf-8"?>
<!-- Generator: Adobe Illustrator 18.1.0, SVG Export Plug-In . SVG Version: 6.00 Build 0)  -->
<svg version="1.1" id="sound" xmlns="http://www.w3.org/2000/svg" xmlns:xlink="http://www.w3.org/1999/xlink" x="0px" y="0px"
	 viewBox="0 0 605.1 605.1" enable-background="new 0 0 605.1 605.1" xml:space="preserve">
<g>
	<rect y="578.8" width="605.1" height="26.3"/>
	<rect y="526.2" width="78.9" height="26.3"/>
	<rect x="131.5" y="526.2" width="78.9" height="26.3"/>
	<rect x="263.1" y="526.2" width="78.9" height="26.3"/>
	<rect x="394.6" y="526.2" width="78.9" height="26.3"/>
	<rect x="526.2" y="526.2" width="78.9" height="26.3"/>
	<rect y="473.6" width="78.9" height="26.3"/>
	<rect x="131.5" y="473.6" width="78.9" height="26.3"/>
	<rect x="263.1" y="473.6" width="78.9" height="26.3"/>
	<rect x="394.6" y="473.6" width="78.9" height="26.3"/>
	<rect x="526.2" y="473.6" width="78.9" height="26.3"/>
	<rect y="420.9" width="78.9" height="26.3"/>
	<rect x="131.5" y="420.9" width="78.9" height="26.3"/>
	<rect x="263.1" y="420.9" width="78.9" height="26.3"/>
	<rect x="394.6" y="420.9" width="78.9" height="26.3"/>
	<rect x="526.2" y="420.9" width="78.9" height="26.3"/>
	<rect y="368.3" width="78.9" height="26.3"/>
	<rect x="131.5" y="368.3" width="78.9" height="26.3"/>
	<rect x="263.1" y="368.3" width="78.9" height="26.3"/>
	<rect x="394.6" y="368.3" width="78.9" height="26.3"/>
	<rect y="315.7" width="78.9" height="26.3"/>
	<rect x="131.5" y="315.7" width="78.9" height="26.3"/>
	<rect x="263.1" y="315.7" width="78.9" height="26.3"/>
	<rect x="394.6" y="315.7" width="78.9" height="26.3"/>
	<rect y="263.1" width="78.9" height="26.3"/>
	<rect x="131.5" y="263.1" width="78.9" height="26.3"/>
	<rect x="394.6" y="263.1" width="78.9" height="26.3"/>
	<rect y="210.5" width="78.9" height="26.3"/>
	<rect x="131.5" y="210.5" width="78.9" height="26.3"/>
	<rect x="394.6" y="210.5" width="78.9" height="26.3"/>
	<rect y="157.9" width="78.9" height="26.3"/>
	<rect x="131.5" y="157.9" width="78.9" height="26.3"/>
	<rect x="394.6" y="157.9" width="78.9" height="26.3"/>
	<rect y="105.2" width="78.9" height="26.3"/>
	<rect y="52.6" width="78.9" height="26.3"/>
	<rect y="0" width="78.9" height="26.3"/>
	<rect x="394.6" y="105.2" width="78.9" height="26.3"/>
</g>
</svg>
