<?xml version="1.0" encoding="utf-8"?>
<!-- Generator: Adobe Illustrator 18.1.0, SVG Export Plug-In . SVG Version: 6.00 Build 0)  -->
<svg version="1.1" id="spanner" xmlns="http://www.w3.org/2000/svg" xmlns:xlink="http://www.w3.org/1999/xlink" x="0px" y="0px"
	 viewBox="0 0 644.6 644.6" enable-background="new 0 0 644.6 644.6" xml:space="preserve">
<path d="M623.5,97.3L507.8,210.5c-10.5,10.5-23.7,15.8-36.8,15.8s-26.3-5.3-36.8-15.8c-21-21-21-52.6,0-73.7L547.2,23.7
	C520.9,7.9,492,0,460.4,0C357.8,0,276.2,81.6,276.2,184.2c0,23.7,5.3,44.7,13.2,65.8L0,539.3l105.2,105.2l289.4-289.4
	c21,7.9,42.1,13.2,65.8,13.2c102.6,0,184.2-81.6,184.2-184.2C644.6,152.6,636.7,123.7,623.5,97.3z M460.4,342
	c-18.4,0-39.5-2.6-57.9-10.5l-15.8-5.3l-13.2,13.2L105.2,607.7l-68.4-68.4l271-271l13.2-13.2l-5.3-15.8
	c-10.5-15.8-13.2-36.8-13.2-55.2c0-86.8,71-157.9,157.9-157.9c13.2,0,26.3,2.6,42.1,5.3l-84.2,84.2c-31.6,31.6-31.6,81.6,0,110.5
	c15.8,15.8,34.2,23.7,55.2,23.7c21,0,42.1-7.9,55.2-23.7l84.2-84.2c2.6,13.2,5.3,26.3,5.3,42.1C618.3,271,547.2,342,460.4,342z"/>
</svg>
