<?xml version="1.0" encoding="utf-8"?>
<!-- Generator: Adobe Illustrator 18.1.0, SVG Export Plug-In . SVG Version: 6.00 Build 0)  -->
<svg version="1.1" id="telephone" xmlns="http://www.w3.org/2000/svg" xmlns:xlink="http://www.w3.org/1999/xlink" x="0px" y="0px"
	 viewBox="0 0 688 689.3" enable-background="new 0 0 688 689.3" xml:space="preserve">
<path d="M644.6,92.1L552.5,0L394.6,157.9l65.8,65.8L223.6,460.4l-65.8-65.8L0,552.5l92.1,92.1c28.9,28.9,68.4,44.7,105.2,44.7
	s76.3-15.8,105.2-44.7l342-342C702.5,244.7,702.5,150,644.6,92.1z M626.2,284.1l-342,342c-23.7,23.7-52.6,36.8-86.8,36.8
	s-63.1-13.2-86.8-36.8l-73.7-73.7l121-121l47.4,47.4l18.4,18.4l18.4-18.4L478.8,242l18.4-18.4l-18.4-18.4l-47.4-47.4l121-121
	l73.7,73.7C673.5,157.9,673.5,236.8,626.2,284.1z"/>
</svg>
