<?xml version="1.0" encoding="utf-8"?>
<!-- Generator: Adobe Illustrator 18.1.0, SVG Export Plug-In . SVG Version: 6.00 Build 0)  -->
<svg version="1.1" id="clip" xmlns="http://www.w3.org/2000/svg" xmlns:xlink="http://www.w3.org/1999/xlink" x="0px" y="0px"
	 viewBox="0 0 618.3 632.1" enable-background="new 0 0 618.3 632.1" xml:space="preserve">
<path d="M576.2,37.5c-50-50-134.2-50-186.8,0L0,429.5l18.4,18.4l389.4-392c42.1-42.1,107.9-42.1,150,0c21,21,31.6,47.4,31.6,73.7
	c0,28.9-10.5,55.2-31.6,73.7L176.3,587.3c-23.7,23.7-68.4,23.7-92.1,0c-26.3-26.3-26.3-68.4,0-92.1l381.5-381.5
	c10.5-10.5,26.3-10.5,36.8,0c5.3,5.3,7.9,10.5,7.9,18.4c0,7.9-2.6,13.2-7.9,18.4L110.5,540l18.4,18.4L518.3,169
	c10.5-10.5,15.8-23.7,15.8-36.8s-5.3-26.3-15.8-36.8c-21-21-55.2-21-73.7,0L65.8,476.9c-36.8,36.8-36.8,94.7,0,128.9
	c18.4,18.4,39.5,26.3,65.8,26.3s47.4-10.5,65.8-26.3l381.5-381.5c23.7-23.7,39.5-57.9,39.5-92.1C615.6,95.4,599.8,63.8,576.2,37.5z"
	/>
</svg>
