<?xml version="1.0" encoding="utf-8"?>
<!-- Generator: Adobe Illustrator 18.1.0, SVG Export Plug-In . SVG Version: 6.00 Build 0)  -->
<svg version="1.1" id="invisible" xmlns="http://www.w3.org/2000/svg" xmlns:xlink="http://www.w3.org/1999/xlink" x="0px" y="0px"
	 viewBox="0 0 741.9 649.2" enable-background="new 0 0 741.9 649.2" xml:space="preserve">
<g>
	<path d="M649.8,231.6L631.4,250l73.7,73.7L536.7,492.1c-44.7,44.7-105.2,68.4-168.4,68.4c-15.8,0-31.6-2.6-47.4-5.3l-21,21
		c21,5.3,44.7,7.9,68.4,7.9c68.4,0,134.2-26.3,186.8-76.3l186.8-186.8L649.8,231.6z"/>
	<path d="M110.5,397.4l-73.7-73.7l168.4-168.4c42.1-44.7,102.6-68.4,165.7-68.4c15.8,0,31.6,2.6,47.4,5.3l21-21
		c-23.7-7.9-44.7-10.5-68.4-10.5c-68.4,0-134.2,26.3-186.8,76.3L0,323.7l92.1,92.1L110.5,397.4z"/>
	<rect x="-75.9" y="311.5" transform="matrix(-0.7071 0.7071 -0.7071 -0.7071 861.212 292.5238)" width="891.9" height="26.3"/>
</g>
</svg>
