<?xml version="1.0" encoding="utf-8"?>
<!-- Generator: Adobe Illustrator 18.1.0, SVG Export Plug-In . SVG Version: 6.00 Build 0)  -->
<svg version="1.1" id="printer" xmlns="http://www.w3.org/2000/svg" xmlns:xlink="http://www.w3.org/1999/xlink" x="0px" y="0px"
	 viewBox="0 0 736.7 657.7" enable-background="new 0 0 736.7 657.7" xml:space="preserve">
<g>
	<path d="M631.4,105.2h-52.6V0H157.9v105.2h-52.6L0,210.5v368.3h105.2v78.9h526.2v-78.9h105.2V210.5L631.4,105.2z M184.2,26.3h368.3
		v131.5H184.2V26.3z M115.8,131.5h42.1v26.3h-26.3l-26.3,26.3h52.6h420.9h52.6l-26.3-26.3h-26.3v-26.3h42.1l78.9,78.9h-663
		L115.8,131.5z M605.1,631.4H131.5V499.9h473.6V631.4z M631.4,552.5v-52.6h26.3v-26.3h-26.3H105.2H78.9v26.3h26.3v52.6H26.3V236.8
		h684v315.7H631.4z"/>
	<circle cx="644.6" cy="302.6" r="21"/>
	<rect x="78.9" y="289.4" width="157.9" height="26.3"/>
</g>
</svg>
