<?xml version="1.0" encoding="utf-8"?>
<!-- Generator: Adobe Illustrator 18.1.0, SVG Export Plug-In . SVG Version: 6.00 Build 0)  -->
<svg version="1.1" id="tack" xmlns="http://www.w3.org/2000/svg" xmlns:xlink="http://www.w3.org/1999/xlink" x="0px" y="0px"
	 viewBox="0 0 676.1 673.5" enable-background="new 0 0 676.1 673.5" xml:space="preserve">
<path d="M657.7,176.3l18.4-18.4l-15.8-18.4L536.7,15.8L520.9,0l-18.4,18.4l15.8,15.8L310.4,242c-21-7.9-42.1-10.5-63.1-10.5
	c-52.6,0-102.6,21-139.4,57.9l-10.5,10.5l128.9,128.9L0,655.1l18.4,18.4l226.3-226.3l128.9,128.9l10.5-10.5
	c36.8-36.8,57.9-86.8,57.9-139.4c0-21-2.6-42.1-10.5-63.1l210.5-205.2L657.7,176.3z M376.2,539.3l-242-242
	c31.6-26.3,71-42.1,110.5-42.1c94.7,0,171,76.3,171,171C418.3,470.9,402.5,510.4,376.2,539.3z M423.6,339.4
	c-18.4-36.8-50-68.4-86.8-86.8L536.7,52.6l86.8,86.8L423.6,339.4z"/>
</svg>
