<?xml version="1.0" encoding="utf-8"?>
<!-- Generator: Adobe Illustrator 18.1.0, SVG Export Plug-In . SVG Version: 6.00 Build 0)  -->
<svg version="1.1" id="brush" xmlns="http://www.w3.org/2000/svg" xmlns:xlink="http://www.w3.org/1999/xlink" x="0px" y="0px"
	 viewBox="0 0 657.7 657.7" enable-background="new 0 0 657.7 657.7" xml:space="preserve">
<path d="M657.7,105.2L552.5,0L131.5,420.9c-5.3,0-7.9,0-13.2,0C52.6,420.9,0,473.6,0,539.3v118.4h118.4
	c65.8,0,118.4-52.6,118.4-118.4c0-5.3,0-7.9,0-13.2L657.7,105.2z M620.9,105.2L305.2,418.3l-68.4-68.4L552.5,36.8L620.9,105.2z
	 M221,371l68.4,68.4l-63.1,63.1l-68.4-68.4L221,371z M118.4,631.4h-21l55.2-55.2l-18.4-18.4l-73.7,73.7H26.3v-34.2l76.3-76.3
	l-18.4-18.4l-57.9,57.9v-21c0-50,42.1-92.1,92.1-92.1c5.3,0,10.5,0,13.2,0l78.9,78.9c0,5.3,0,10.5,0,13.2
	C210.5,589.3,168.4,631.4,118.4,631.4z"/>
</svg>
