<?xml version="1.0" encoding="utf-8"?>
<!-- Generator: Adobe Illustrator 18.1.0, SVG Export Plug-In . SVG Version: 6.00 Build 0)  -->
<svg version="1.1" id="calculator" xmlns="http://www.w3.org/2000/svg" xmlns:xlink="http://www.w3.org/1999/xlink" x="0px" y="0px"
	 viewBox="0 0 526.2 684" enable-background="new 0 0 526.2 684" xml:space="preserve">
<g>
	<circle cx="105.2" cy="355.2" r="21"/>
	<circle cx="184.2" cy="355.2" r="21"/>
	<circle cx="105.2" cy="434.1" r="21"/>
	<circle cx="184.2" cy="434.1" r="21"/>
	<circle cx="105.2" cy="513" r="21"/>
	<circle cx="184.2" cy="513" r="21"/>
	<circle cx="105.2" cy="592" r="21"/>
	<circle cx="184.2" cy="592" r="21"/>
	<circle cx="263.1" cy="355.2" r="21"/>
	<circle cx="342" cy="355.2" r="21"/>
	<circle cx="420.9" cy="355.2" r="21"/>
	<circle cx="263.1" cy="434.1" r="21"/>
	<circle cx="342" cy="434.1" r="21"/>
	<circle cx="420.9" cy="434.1" r="21"/>
	<circle cx="263.1" cy="513" r="21"/>
	<circle cx="342" cy="513" r="21"/>
	<circle cx="263.1" cy="592" r="21"/>
	<circle cx="342" cy="592" r="21"/>
	<path d="M0,0v131.5v157.9V684h526.2V289.4V131.5V0H0z M26.3,157.9h473.6v105.2H26.3V157.9z M499.9,657.7H26.3V289.4h473.6V657.7z
		 M26.3,131.5V26.3h473.6v105.2H26.3z"/>
	<rect x="407.8" y="499.9" width="26.3" height="105.2"/>
	<rect x="184.2" y="78.9" width="157.9" height="26.3"/>
</g>
</svg>
