<?xml version="1.0" encoding="utf-8"?>
<!-- Generator: Adobe Illustrator 18.1.0, SVG Export Plug-In . SVG Version: 6.00 Build 0)  -->
<!DOCTYPE svg PUBLIC "-//W3C//DTD SVG 1.1//EN" "http://www.w3.org/Graphics/SVG/1.1/DTD/svg11.dtd">
<svg version="1.1" id="chemistry" xmlns="http://www.w3.org/2000/svg" xmlns:xlink="http://www.w3.org/1999/xlink" x="0px" y="0px"
	 viewBox="0 0 595.4 595.4" enable-background="new 0 0 595.4 595.4" xml:space="preserve">
<path d="M579.5,151.7l15.8-15.8L581.8,120L475.3,13.6L461.8,0l-15.8,15.8l13.6,13.6L285.2,203.7c-27.2-11.4-54.3-15.8-81.5-15.8
	C90.6,187.9,0,278.4,0,391.6s90.6,203.7,203.7,203.7s203.7-90.5,203.7-203.7c0-27.2-4.6-54.3-15.8-81.5l174.3-174.3L579.5,151.7z
	 M203.7,572.7c-99.6,0-181.1-81.5-181.1-181.1h362.1C384.8,491.2,303.4,572.7,203.7,572.7z M364.4,305.6l4.6,6.8
	c9,18.1,13.6,36.2,15.8,54.3H25c11.4-88.3,88.3-158.5,178.8-158.5c27.2,0,54.3,6.8,77,18.1l6.8,4.6L475.4,45.3l74.7,74.7
	L364.4,305.6z"/>
</svg>
