<?xml version="1.0" encoding="utf-8"?>
<!-- Generator: Adobe Illustrator 18.1.1, SVG Export Plug-In . SVG Version: 6.00 Build 0)  -->
<svg version="1.1" id="Delete" xmlns="http://www.w3.org/2000/svg" xmlns:xlink="http://www.w3.org/1999/xlink" x="0px" y="0px"
	 viewBox="0 0 18 18" enable-background="new 0 0 18 18" xml:space="preserve">
<g id="Trash">
	<rect x="7" fill="#666666" width="4" height="1"/>
	<rect x="2" y="2" fill="#666666" width="14" height="2"/>
	<rect x="3" y="5" fill="#666666" width="12" height="13"/>
	<g>
		<path fill="#FFFFFF" d="M7,15.2C7,15.7,6.5,16,6,16c-0.5,0-1-0.4-1-0.8V7.8C5,7.4,5.5,7,6,7c0.5,0,1,0.4,1,0.8V15.2z"/>
		<path fill="#FFFFFF" d="M10,15.2c0,0.5-0.5,0.8-1,0.8c-0.5,0-1-0.4-1-0.8V7.8C8,7.4,8.5,7,9,7c0.5,0,1,0.4,1,0.8V15.2z"/>
		<path fill="#FFFFFF" d="M13,15.2c0,0.5-0.5,0.8-1,0.8c-0.5,0-1-0.4-1-0.8V7.8C11,7.4,11.5,7,12,7c0.5,0,1,0.4,1,0.8V15.2z"/>
	</g>
</g>
</svg>
