<?xml version="1.0" encoding="utf-8"?>
<!-- Generator: Adobe Illustrator 18.1.1, SVG Export Plug-In . SVG Version: 6.00 Build 0)  -->
<svg version="1.1" id="Add_x5F_to_x5F_List" xmlns="http://www.w3.org/2000/svg" xmlns:xlink="http://www.w3.org/1999/xlink"
	 x="0px" y="0px" viewBox="0 0 18 18" enable-background="new 0 0 18 18" xml:space="preserve">
<g>
	<g>
		<path fill="#666666" d="M9,2c3.9,0,7,3.1,7,7c0,3.9-3.1,7-7,7c-3.9,0-7-3.1-7-7C2,5.1,5.1,2,9,2 M9,1C4.6,1,1,4.6,1,9
			c0,4.4,3.6,8,8,8c4.4,0,8-3.6,8-8C17,4.6,13.4,1,9,1L9,1z"/>
		<polygon fill="#666666" points="13,8 10,8 10,5 8,5 8,8 5,8 5,10 8,10 8,13 10,13 10,10 13,10 		"/>
	</g>
</g>
</svg>
