<?xml version="1.0" encoding="utf-8"?>
<!-- Generator: Adobe Illustrator 18.1.1, SVG Export Plug-In . SVG Version: 6.00 Build 0)  -->
<svg version="1.1" id="chrome.undo" xmlns="http://www.w3.org/2000/svg" xmlns:xlink="http://www.w3.org/1999/xlink" x="0px"
	 y="0px" viewBox="0 0 18 18" enable-background="new 0 0 18 18" xml:space="preserve">
<g>
	<path fill="#666666" d="M10.2,2.2c-2.1,0-4,0.8-5.5,2.3C4,5.1,3.5,5.9,3.1,6.8L0,3v9h8L4.9,8.9c0.2-1,0.7-2,1.5-2.7
		c1-1,2.4-1.6,3.8-1.6c1.4,0,2.8,0.6,3.8,1.6c1,1,1.6,2.4,1.6,3.8c0,1.4-0.6,2.8-1.6,3.8c-0.5,0.5-0.5,1.2,0,1.7
		c0.2,0.2,0.5,0.4,0.8,0.4c0.3,0,0.6-0.1,0.8-0.4C17.2,14,18,12,18,10c0-2.1-0.8-4-2.3-5.5C14.2,3,12.3,2.2,10.2,2.2z"/>
</g>
</svg>
