<?xml version="1.0" encoding="utf-8"?>
<!-- Generator: Adobe Illustrator 18.1.1, SVG Export Plug-In . SVG Version: 6.00 Build 0)  -->
<svg version="1.1" id="chrome.main_x5F_menu" xmlns="http://www.w3.org/2000/svg" xmlns:xlink="http://www.w3.org/1999/xlink"
	 x="0px" y="0px" viewBox="0 0 18 18" enable-background="new 0 0 18 18" xml:space="preserve">
<g>
	<path fill="#666666" d="M17,3c0-1.1-0.9-2-2-2H3C1.9,1,1,1.9,1,3l0,0c0,1.1,0.9,2,2,2h12C16.1,5,17,4.1,17,3L17,3z"/>
	<path fill="#666666" d="M17,9c0-1.1-0.9-2-2-2H3C1.9,7,1,7.9,1,9l0,0c0,1.1,0.9,2,2,2h12C16.1,11,17,10.1,17,9L17,9z"/>
	<path fill="#666666" d="M17,15c0-1.1-0.9-2-2-2H3c-1.1,0-2,0.9-2,2l0,0c0,1.1,0.9,2,2,2h12C16.1,17,17,16.1,17,15L17,15z"/>
</g>
</svg>
