<?xml version="1.0" encoding="utf-8"?>
<!-- Generator: Adobe Illustrator 18.1.1, SVG Export Plug-In . SVG Version: 6.00 Build 0)  -->
<svg version="1.1" id="chrome.locked" xmlns="http://www.w3.org/2000/svg" xmlns:xlink="http://www.w3.org/1999/xlink" x="0px"
	 y="0px" viewBox="0 0 18 18" enable-background="new 0 0 18 18" xml:space="preserve">
<path fill="#666666" d="M14,8V7c0-2.8-2.2-5-5-5S4,4.2,4,7v1H3v9h12V8H14z M6,7c0-1.7,1.3-3,3-3s3,1.3,3,3v1H6V7z M7,16l1.3-3.2
	c-0.5-0.3-0.8-0.7-0.8-1.3C7.5,10.7,8.2,10,9,10s1.5,0.7,1.5,1.5c0,0.6-0.3,1.1-0.8,1.3L11,16H7z"/>
</svg>
