<?xml version="1.0" encoding="utf-8"?>
<!-- Generator: Adobe Illustrator 18.1.1, SVG Export Plug-In . SVG Version: 6.00 Build 0)  -->
<svg version="1.1" id="chrome.secondary_x5F_commands"
	 xmlns="http://www.w3.org/2000/svg" xmlns:xlink="http://www.w3.org/1999/xlink" x="0px" y="0px" viewBox="0 0 18 18"
	 enable-background="new 0 0 18 18" xml:space="preserve">
<path fill="#666666" d="M6,3c0,1.1-0.9,2-2,2S2,4.1,2,3s0.9-2,2-2S6,1.9,6,3z M4,7C2.9,7,2,7.9,2,9s0.9,2,2,2s2-0.9,2-2S5.1,7,4,7z
	 M4,13c-1.1,0-2,0.9-2,2s0.9,2,2,2s2-0.9,2-2S5.1,13,4,13z"/>
</svg>
