<?xml version="1.0" encoding="utf-8"?>
<!-- Generator: Adobe Illustrator 18.1.0, SVG Export Plug-In . SVG Version: 6.00 Build 0)  -->
<svg version="1.1" id="database" xmlns="http://www.w3.org/2000/svg" xmlns:xlink="http://www.w3.org/1999/xlink" x="0px" y="0px"
	 viewBox="0 0 631.4 628.8" enable-background="new 0 0 631.4 628.8" xml:space="preserve">
<path d="M315.7,0C142.1,0,0,28.9,0,65.8v171v28.9v155.2v121v13.2l0,0c5.3,57.9,207.8,73.7,315.7,73.7s307.8-15.8,315.7-73.7l0,0
	V436.7v-15.8V268.4v-31.6v-171C631.4,28.9,489.3,0,315.7,0z M315.7,26.3c157.9,0,255.2,23.7,284.1,39.5
	c-28.9,15.8-126.3,39.5-284.1,39.5S60.5,81.6,31.6,65.8C60.5,50,157.9,26.3,315.7,26.3z M605.1,555.1c0,15.8-97.3,50-289.4,50
	s-289.4-36.8-289.4-50v-10.5V431.5c57.9,34.2,202.6,42.1,289.4,42.1s231.5-10.5,289.4-42.1V442V555.1z M605.1,397.3
	c0,15.8-97.3,50-289.4,50s-289.4-36.8-289.4-50V268.4v-21c57.9,34.2,202.6,42.1,289.4,42.1s231.5-10.5,289.4-42.1V271V397.3z
	 M315.7,260.5c-192.1,0-289.4-34.2-289.4-50V92.1c47.4,23.7,160.5,39.5,289.4,39.5s242-15.8,289.4-39.5v121
	C605.1,226.3,507.8,260.5,315.7,260.5z"/>
</svg>
