<?xml version="1.0" encoding="utf-8"?>
<!-- Generator: Adobe Illustrator 18.1.1, SVG Export Plug-In . SVG Version: 6.00 Build 0)  -->
<svg version="1.1" id="Invalid_x5F_Drag" xmlns="http://www.w3.org/2000/svg" xmlns:xlink="http://www.w3.org/1999/xlink" x="0px"
	 y="0px" viewBox="0 0 18 18" enable-background="new 0 0 18 18" xml:space="preserve">
<path fill="#666666" d="M13.9,4C11.2,1.3,6.8,1.3,4,4c-2.7,2.7-2.7,7.2,0,9.9c2.7,2.7,7.2,2.7,9.9,0C16.7,11.2,16.7,6.8,13.9,4z
	 M5.5,5.5c1.8-1.8,4.6-1.9,6.6-0.4l-7,7C3.5,10.1,3.7,7.3,5.5,5.5z M12.5,12.5c-1.6,1.6-4.1,1.9-6,0.8l6.8-6.8
	C14.4,8.5,14.1,10.9,12.5,12.5z"/>
</svg>
