<?xml version="1.0" encoding="utf-8"?>
<!-- Generator: Adobe Illustrator 18.1.1, SVG Export Plug-In . SVG Version: 6.00 Build 0)  -->
<svg version="1.1" id="Display" xmlns="http://www.w3.org/2000/svg" xmlns:xlink="http://www.w3.org/1999/xlink" x="0px" y="0px"
	 viewBox="0 0 18 18" enable-background="new 0 0 18 18" xml:space="preserve">
<g>
	<rect x="12" y="8" fill="#666666" width="2" height="1"/>
	<rect x="12" y="11" fill="#666666" width="2" height="1"/>
	<rect x="12" y="13" fill="#666666" width="2" height="1"/>
	<path fill="#666666" d="M11,0H2v18h14V6V5L11,0z M14.6,5H11V1.4L14.6,5L14.6,5z M10,4.8L8.3,6.3L6,4.3L5,5.6V4h5V4.8z M5,7.3
		l1.1-1.5l2.1,1.9L10,6.1V8H5V7.3z M15,17H3V1h7v2H4v6h7V6h1v1h2V6h1V17z"/>
	<polygon fill="#666666" points="11,15 11,12 10,12 10,15 9,15 9,13 8,13 8,15 7,15 7,12 6,12 6,15 5,15 5,11 4,11 4,15 4,16 14,16 
		14,15 	"/>
</g>
</svg>
