<?xml version="1.0" encoding="utf-8"?>
<!-- Generator: Adobe Illustrator 18.1.1, SVG Export Plug-In . SVG Version: 6.00 Build 0)  -->
<svg version="1.1" id="Annotation" xmlns="http://www.w3.org/2000/svg" xmlns:xlink="http://www.w3.org/1999/xlink" x="0px" y="0px"
	 viewBox="0 0 18 18" enable-background="new 0 0 18 18" xml:space="preserve">
<g>
	<g>
		<polygon fill="#666666" points="14.6,2 13.2,3.4 14.6,4.8 16,3.4 14.6,2 		"/>
	</g>
	<g>
		<polygon fill="#666666" points="7.5,9.1 7,11 8.9,10.5 7.5,9.1 		"/>
	</g>
	<g>
		<polygon fill="#666666" points="12.4,4.2 8.3,8.3 9.7,9.7 13.8,5.6 12.4,4.2 		"/>
	</g>
	<g>
		<polygon fill="#666666" points="9.2,6 2,6 2,16 10,16 12,14 12,8.8 11,9.8 11,13.5 9.5,15 3,15 3,7 8.2,7 9.2,6 		"/>
	</g>
	<g>
		<polygon fill="#666666" points="7,9 4,9 4,10 7,10 7,9 		"/>
	</g>
	<g>
		<polygon fill="#666666" points="7,11 4,11 4,12 7,12 7,11 		"/>
	</g>
	<g>
		<polygon fill="#666666" points="9,13 4,13 4,14 9,14 9,13 		"/>
	</g>
</g>
</svg>
