<?xml version="1.0" encoding="utf-8"?>
<!-- Generator: Adobe Illustrator 18.1.1, SVG Export Plug-In . SVG Version: 6.00 Build 0)  -->
<svg version="1.1" id="Grid" xmlns="http://www.w3.org/2000/svg" xmlns:xlink="http://www.w3.org/1999/xlink" x="0px" y="0px"
	 viewBox="0 0 18 18" enable-background="new 0 0 18 18" xml:space="preserve">
<g>
	<g>
		<g>
			<path fill="#666666" d="M17,7c0,0.5-0.5,1-1,1h-5c-0.5,0-1-0.5-1-1V2c0-0.5,0.5-1,1-1h5c0.5,0,1,0.5,1,1V7z"/>
		</g>
	</g>
	<path fill="#666666" d="M8,7c0,0.5-0.5,1-1,1H2C1.5,8,1,7.5,1,7V2c0-0.5,0.5-1,1-1h5c0.5,0,1,0.5,1,1V7z"/>
	<path fill="#666666" d="M17,16c0,0.5-0.5,1-1,1h-5c-0.5,0-1-0.5-1-1v-5c0-0.5,0.5-1,1-1h5c0.5,0,1,0.5,1,1V16z"/>
	<path fill="#666666" d="M8,16c0,0.5-0.5,1-1,1H2c-0.5,0-1-0.5-1-1v-5c0-0.5,0.5-1,1-1h5c0.5,0,1,0.5,1,1V16z"/>
</g>
</svg>
