<?xml version="1.0" encoding="utf-8"?>
<!-- Generator: Adobe Illustrator 18.1.1, SVG Export Plug-In . SVG Version: 6.00 Build 0)  -->
<svg version="1.1" id="chrome.redo" xmlns="http://www.w3.org/2000/svg" xmlns:xlink="http://www.w3.org/1999/xlink" x="0px"
	 y="0px" viewBox="0 0 18 18" enable-background="new 0 0 18 18" xml:space="preserve">
<path display="none" fill="none" stroke="#000000" stroke-miterlimit="10" d="M8.5,324l5-2.9 M8.5,329.8V324l-5-2.9"/>
<g display="none">
	<path display="inline" d="M8.5,321.1l2.6,1.5v3l-2.6,1.5l-2.6-1.5v-3L8.5,321.1 M8.5,319.9L4.9,322v4.2l3.6,2.1l3.6-2.1V322
		L8.5,319.9L8.5,319.9z"/>
</g>
<path display="none" fill="none" stroke="#000000" stroke-miterlimit="10" d="M8.5,324.1l4-2.3 M8.5,328.7v-4.6l-4-2.3"/>
<g display="none">
	<path display="inline" d="M8.5,320.5l3,1.7v3.5l-3,1.7l-3-1.7v-3.5L8.5,320.5 M8.5,319.4l-4,2.3v4.6l4,2.3l4-2.3v-4.6L8.5,319.4
		L8.5,319.4z"/>
</g>
<g>
	<path fill="#666666" d="M7.8,2.2c2.1,0,4,0.8,5.5,2.3c0.7,0.7,1.2,1.5,1.6,2.4L18,3v9h-8l3.1-3.1c-0.2-1-0.7-2-1.5-2.7
		c-1-1-2.4-1.6-3.8-1.6C6.4,4.6,5,5.1,4,6.1c-1,1-1.6,2.4-1.6,3.8c0,1.4,0.6,2.8,1.6,3.8c0.5,0.5,0.5,1.2,0,1.7
		c-0.2,0.2-0.5,0.4-0.8,0.4c-0.3,0-0.6-0.1-0.8-0.4C0.8,14,0,12,0,10c0-2.1,0.8-4,2.3-5.5C3.8,3,5.7,2.2,7.8,2.2z"/>
</g>
</svg>
