<?xml version="1.0" encoding="utf-8"?>
<!-- Generator: Adobe Illustrator 18.1.1, SVG Export Plug-In . SVG Version: 6.00 Build 0)  -->
<svg version="1.1" id="Zoom_x5F_Out" xmlns="http://www.w3.org/2000/svg" xmlns:xlink="http://www.w3.org/1999/xlink" x="0px"
	 y="0px" viewBox="0 0 18 18" enable-background="new 0 0 18 18" xml:space="preserve">
<g>
	<g>
		<rect x="5" y="7" fill="#666666" width="5" height="1"/>
		<path fill="#666666" d="M15.7,13.6l-3.4-3.4C12.7,9.4,13,8.5,13,7.5c0-3-2.5-5.5-5.5-5.5C4.5,2,2,4.5,2,7.5S4.5,13,7.5,13
			c1,0,1.9-0.3,2.7-0.7l3.4,3.4c0.4,0.4,1,0.4,1.4,0l0.7-0.7C16.1,14.6,16.1,14,15.7,13.6z M4,7.5C4,5.6,5.6,4,7.5,4S11,5.6,11,7.5
			S9.4,11,7.5,11S4,9.4,4,7.5z"/>
	</g>
</g>
</svg>
