<?xml version="1.0" encoding="utf-8"?>
<!-- Generator: Adobe Illustrator 18.1.1, SVG Export Plug-In . SVG Version: 6.00 Build 0)  -->
<svg version="1.1" id="Pan_x5F_Active" xmlns="http://www.w3.org/2000/svg" xmlns:xlink="http://www.w3.org/1999/xlink" x="0px"
	 y="0px" viewBox="0 0 18 18" enable-background="new 0 0 18 18" xml:space="preserve">
<g>
	<path fill="#666666" d="M8.8,2.2c0.4,0,0.7,0.3,0.7,0.7L10,7.8c0.1,0.3,0.2,0.4,0.2,0.4c0.1,0,0.3-0.3,0.3-0.3l0.7-4
		c0.1-0.4,0.4-0.6,0.7-0.6c0,0,0.1,0,0.1,0c0.4,0.1,0.7,0.5,0.6,0.9l-0.7,4l0,0l0,0l0,0c0,0,0,0.6,0.2,0.6c0.1,0,0.2-0.1,0.3-0.2
		c0,0,0,0,0,0l1.2-2.6c0.1-0.2,0.4-0.4,0.6-0.4c0.1,0,0.3,0,0.4,0.1c0.4,0.2,0.5,0.7,0.2,1l-2.1,4.5c0,0-0.3,1.9-1.1,3.5l0,1.4H7.3
		l0-1.4c0,0-0.8-0.5-1.6-1.8l-2.5-2.1C2.9,10.5,2.9,10,3.2,9.7c0.1-0.2,0.4-0.3,0.6-0.3c0.2,0,0.3,0.1,0.5,0.2l1.4,1.1
		c0.1,0.1,0.3,0.2,0.5,0.2c0.4,0,0.8-0.5,0.2-2.5L5.1,4.5C5,4.1,5.2,3.7,5.6,3.6c0.1,0,0.1,0,0.2,0c0.3,0,0.6,0.2,0.7,0.5l1.2,3.9
		c0,0,0,0.1,0,0.1c0.1,0.3,0.3,0.6,0.5,0.6c0.1,0,0.2-0.2,0.2-0.9L8.1,3C8.1,2.6,8.4,2.3,8.8,2.2C8.8,2.2,8.8,2.2,8.8,2.2 M8.8,1.2
		c0,0-0.1,0-0.1,0C7.7,1.3,7,2.2,7.1,3.1l0,0C6.8,2.8,6.3,2.6,5.8,2.6c-0.2,0-0.3,0-0.5,0.1c-0.4,0.1-0.8,0.4-1,0.8
		C4.1,3.9,4,4.3,4.2,4.8l1.2,3.9C5.5,9,5.5,9.2,5.6,9.4L4.8,8.8C4.5,8.6,4.1,8.4,3.7,8.4h0c-0.5,0-1,0.2-1.3,0.6
		C2.1,9.4,2,9.8,2,10.3c0,0.5,0.3,0.9,0.6,1.2l2.4,2c0.5,0.8,1,1.3,1.4,1.6l0,0.9l0,1h1h4.3h1l0-1l0-1.1c0.7-1.4,1-3,1.1-3.5l2-4.3
		c0.5-0.8,0.2-1.8-0.6-2.3c-0.3-0.2-0.6-0.3-0.9-0.3c-0.2,0-0.5,0-0.7,0.1l0.1-0.4c0.2-0.9-0.5-1.8-1.4-2c-0.1,0-0.2,0-0.3,0
		c-0.6,0-1.1,0.3-1.4,0.7l0-0.1C10.5,1.9,9.7,1.2,8.8,1.2L8.8,1.2z"/>
</g>
</svg>
