<?xml version="1.0" encoding="utf-8"?>
<!-- Generator: Adobe Illustrator 18.1.1, SVG Export Plug-In . SVG Version: 6.00 Build 0)  -->
<svg version="1.1" id="search.contact_x5F_field" xmlns="http://www.w3.org/2000/svg" xmlns:xlink="http://www.w3.org/1999/xlink"
	 x="0px" y="0px" viewBox="0 0 18 18" enable-background="new 0 0 18 18" xml:space="preserve">
<g>
	<rect x="16" y="1" fill="#666666" width="1" height="16"/>
	<path fill="#666666" d="M2,5H1v3h1v2H1v3h1v4h13V1H2V5z M3,12H2v-1h1V12z M6.1,10.2c0.2-0.3,0.8-0.4,1.4-0.7
		c0.6-0.3,0.7-0.3,0.7-0.3l0-0.6c0,0-0.2-0.2-0.3-0.7c-0.1,0-0.3-0.2-0.3-0.3c0-0.1,0-0.5,0.2-0.4c0-0.3-0.1-0.5,0-0.6
		c0-0.5,0.5-1,1.2-1c0.7,0,1.2,0.5,1.2,1c0,0.1,0,0.4,0,0.6c0.2,0,0.2,0.3,0.2,0.4c0,0.1-0.2,0.4-0.3,0.3C10,8.4,9.8,8.6,9.8,8.6
		l0,0.6c0,0,0.1,0.1,0.7,0.3c0.6,0.3,1.2,0.4,1.4,0.7C12,10.5,12,11,12,11H9H6C6,11,6,10.5,6.1,10.2z M3,7H2V6h1V7z"/>
</g>
</svg>
