<?xml version="1.0" encoding="utf-8"?>
<!-- Generator: Adobe Illustrator 18.1.1, SVG Export Plug-In . SVG Version: 6.00 Build 0)  -->
<svg version="1.1" id="Tools" xmlns="http://www.w3.org/2000/svg" xmlns:xlink="http://www.w3.org/1999/xlink" x="0px" y="0px"
	 viewBox="0 0 18 18" enable-background="new 0 0 18 18" xml:space="preserve">
<path fill="#666666" d="M16.9,4L15,6h-3V3l2-1.8l0,0C13.7,1.1,13.4,1,13,1c-2.2,0-4,1.8-4,4c0,0.4,0.1,0.7,0.1,1l-7.6,7.6
	c-0.8,0.8-0.8,2,0,2.8c0.8,0.8,2,0.8,2.8,0L12,8.9C12.3,8.9,12.6,9,13,9c2.2,0,4-1.8,4-4C17,4.7,16.9,4.3,16.9,4L16.9,4z"/>
</svg>
