<?xml version="1.0" encoding="utf-8"?>
<!-- Generator: Adobe Illustrator 18.1.1, SVG Export Plug-In . SVG Version: 6.00 Build 0)  -->
<svg version="1.1" id="Data" xmlns="http://www.w3.org/2000/svg" xmlns:xlink="http://www.w3.org/1999/xlink" x="0px" y="0px"
	 viewBox="0 0 18 18" enable-background="new 0 0 18 18" xml:space="preserve">
<g>
	<ellipse fill="#666666" cx="9" cy="3" rx="7" ry="2"/>
	<path fill="#666666" d="M2,4.6V7c0,1.1,3.1,2,7,2s7-0.9,7-2V4.6C14,5.9,9.6,6,9,6S4,5.9,2,4.6z"/>
	<path fill="#666666" d="M2,8.6V11c0,1.1,3.1,2,7,2s7-0.9,7-2V8.6C14,9.9,9.6,10,9,10S4,9.9,2,8.6z"/>
	<path fill="#666666" d="M2,12.6V15c0,1.1,3.1,2,7,2s7-0.9,7-2v-2.4C14,13.9,9.6,14,9,14S4,13.9,2,12.6z"/>
</g>
</svg>
