<?xml version="1.0" encoding="utf-8"?>
<!-- Generator: Adobe Illustrator 18.1.1, SVG Export Plug-In . SVG Version: 6.00 Build 0)  -->
<svg version="1.1" id="Time" xmlns="http://www.w3.org/2000/svg" xmlns:xlink="http://www.w3.org/1999/xlink" x="0px" y="0px"
	 viewBox="0 0 18 18" enable-background="new 0 0 18 18" xml:space="preserve">
<g>
	<path fill="#666666" d="M9,1C4.6,1,1,4.6,1,9s3.6,8,8,8s8-3.6,8-8S13.4,1,9,1z M9,15c-3.2,0-6-2.8-6-6s2.8-6,6-6s6,2.8,6,6
		S12.2,15,9,15z"/>
	<path fill="#666666" d="M10,7.6V6c0-0.6-0.4-1-1-1S8,5.4,8,6v2.4l3.3,3.3c0.2,0.2,0.5,0.3,0.7,0.3c0.3,0,0.5-0.1,0.7-0.3
		c0.4-0.4,0.4-1,0-1.4L10,7.6z"/>
</g>
</svg>
