<?xml version="1.0" encoding="utf-8"?>
<!-- Generator: Adobe Illustrator 18.1.1, SVG Export Plug-In . SVG Version: 6.00 Build 0)  -->
<svg version="1.1" id="Team" xmlns="http://www.w3.org/2000/svg" xmlns:xlink="http://www.w3.org/1999/xlink" x="0px" y="0px"
	 viewBox="0 0 18 18" enable-background="new 0 0 18 18" xml:space="preserve">
<path display="none" fill="none" stroke="#000000" stroke-miterlimit="10" d="M8.5,324l5-2.9 M8.5,329.8V324l-5-2.9"/>
<g display="none">
	<path display="inline" d="M8.5,321.1l2.6,1.5v3l-2.6,1.5l-2.6-1.5v-3L8.5,321.1 M8.5,319.9L4.9,322v4.2l3.6,2.1l3.6-2.1V322
		L8.5,319.9L8.5,319.9z"/>
</g>
<path display="none" fill="none" stroke="#000000" stroke-miterlimit="10" d="M8.5,324.1l4-2.3 M8.5,328.7v-4.6l-4-2.3"/>
<g display="none">
	<path display="inline" d="M8.5,320.5l3,1.7v3.5l-3,1.7l-3-1.7v-3.5L8.5,320.5 M8.5,319.4l-4,2.3v4.6l4,2.3l4-2.3v-4.6L8.5,319.4
		L8.5,319.4z"/>
</g>
<g>
	<g>
		<path fill="#666666" d="M16.8,12c-0.3-0.5-0.3-0.8-1.3-1.2c-1-0.4-1.2-0.6-1.2-0.6l0-0.9c0,0,0.4-0.3,0.5-1.2
			c0.2,0.1,0.5-0.3,0.5-0.6c0-0.2,0-0.8-0.3-0.7c0.1-0.4,0.1-0.8,0.1-1c-0.1-0.8-0.8-1.6-2-1.6c-1.2,0-1.9,0.8-2,1.6
			c0,0.2,0,0.6,0.1,1c-0.3-0.1-0.3,0.5-0.3,0.7c0,0.2,0.3,0.6,0.5,0.6c0.1,0.9,0.5,1.2,0.5,1.2L11,10c0.5,0.3,1.7,0.1,1.9,0.5
			c0.1,0.2,0.5,0.8,0.4,4.5H17C17,15,17.1,12.4,16.8,12z"/>
	</g>
	<g>
		<path fill="#666666" d="M11.8,11.7c-0.3-0.5-1.4-0.8-2.5-1.3C8.1,9.9,7.9,9.8,7.9,9.8l0-1.1c0,0,0.4-0.3,0.5-1.3
			C8.7,7.5,8.9,7,9,6.8c0-0.2,0-0.9-0.3-0.8c0.1-0.5,0.1-0.9,0.1-1.2C8.6,4,7.8,3,6.5,3C5.2,3,4.4,4,4.3,4.8c0,0.2,0,0.7,0.1,1.2
			C4.1,5.9,4,6.6,4,6.8c0,0.2,0.3,0.7,0.5,0.6c0.1,1,0.5,1.3,0.5,1.3l0,1.1c0,0-0.3,0.2-1.4,0.6c-1.1,0.5-2.2,0.8-2.5,1.3
			C0.9,12.1,1,15,1,15h5.5H12C12,15,12.1,12.1,11.8,11.7z"/>
	</g>
</g>
</svg>
