<?xml version="1.0" encoding="utf-8"?>
<!-- Generator: Adobe Illustrator 18.1.1, SVG Export Plug-In . SVG Version: 6.00 Build 0)  -->
<svg version="1.1" id="Event" xmlns="http://www.w3.org/2000/svg" xmlns:xlink="http://www.w3.org/1999/xlink" x="0px" y="0px"
	 viewBox="0 0 18 18" enable-background="new 0 0 18 18" xml:space="preserve">
<g>
	<path fill="#666666" d="M13,8c-2.2,0-4,1.8-4,4s1.8,4,4,4s4-1.8,4-4S15.2,8,13,8z M13,15c-1.6,0-3-1.4-3-3s1.4-3,3-3
		c1.6,0,3,1.4,3,3S14.6,15,13,15z"/>
	<path fill="#666666" d="M13.5,11.3v-0.8c0-0.3-0.2-0.5-0.5-0.5s-0.5,0.2-0.5,0.5v1.2l1.6,1.7c0.1,0.1,0.2,0.1,0.4,0.1
		c0.1,0,0.3,0,0.4-0.1c0.2-0.2,0.2-0.5,0-0.7L13.5,11.3z"/>
</g>
<g>
	<path fill="#666666" d="M15,3v5V6V5V3 M2,6v2V6 M16,2h-2v3h-3V3h-1v2H7V3H6v2H3V2H1v7h2V6h3v2h1V6h3v2h1V6h3v3h2V2L16,2z"/>
</g>
</svg>
